<svg width="1600" height="900" viewBox="0 0 1600 900" fill="none" xmlns="http://www.w3.org/2000/svg">
  <rect width="1600" height="900" fill="#07111D"/>
  <rect x="52" y="52" width="1496" height="796" rx="36" fill="#0B1827" stroke="#1B3145"/>
  <rect x="92" y="92" width="620" height="120" rx="28" fill="#102233"/>
  <rect x="92" y="236" width="920" height="448" rx="32" fill="#09131F" stroke="#163247"/>
  <rect x="1048" y="236" width="460" height="214" rx="32" fill="#102233"/>
  <rect x="1048" y="470" width="460" height="214" rx="32" fill="#102233"/>
  <rect x="92" y="716" width="1416" height="92" rx="28" fill="#102233"/>
  <path d="M180 510C310 430 380 450 470 400C580 338 670 372 770 310C860 254 930 272 980 236" stroke="#00E5FF" stroke-width="10" stroke-linecap="round"/>
  <path d="M220 560C340 600 450 548 560 584C710 632 810 590 930 620" stroke="#FFAB00" stroke-width="8" stroke-linecap="round"/>
  <circle cx="1180" cy="340" r="58" fill="#00E5FF" fill-opacity="0.16" stroke="#00E5FF"/>
  <circle cx="1320" cy="340" r="58" fill="#5BE49B" fill-opacity="0.16" stroke="#5BE49B"/>
  <circle cx="1460" cy="340" r="58" fill="#FFAB00" fill-opacity="0.16" stroke="#FFAB00"/>
  <text x="128" y="138" fill="#9FD7FF" font-family="Arial, sans-serif" font-size="22">GeoSight demo fallback</text>
  <text x="128" y="184" fill="#FFFFFF" font-family="Arial, sans-serif" font-size="50" font-weight="700">Pacific Northwest Infrastructure</text>
  <text x="128" y="760" fill="#E6F0FF" font-family="Arial, sans-serif" font-size="30" font-weight="600">Captured workspace preview while live Columbia River data loads</text>
</svg>
