<svg width="1600" height="900" viewBox="0 0 1600 900" fill="none" xmlns="http://www.w3.org/2000/svg">
  <rect width="1600" height="900" fill="#100A19"/>
  <rect x="52" y="52" width="1496" height="796" rx="36" fill="#171122" stroke="#3E2D63"/>
  <rect x="92" y="92" width="620" height="120" rx="28" fill="#201631"/>
  <rect x="92" y="236" width="920" height="448" rx="32" fill="#0E0A16" stroke="#3E2D63"/>
  <rect x="1048" y="236" width="460" height="214" rx="32" fill="#201631"/>
  <rect x="1048" y="470" width="460" height="214" rx="32" fill="#201631"/>
  <path d="M160 560C260 420 360 620 470 470C550 360 660 390 740 310C840 210 920 330 980 236" stroke="#A78BFA" stroke-width="10" stroke-linecap="round"/>
  <path d="M160 624H980" stroke="#6E5CA6" stroke-width="6" stroke-dasharray="14 14"/>
  <circle cx="1278" cy="342" r="70" fill="#A78BFA" fill-opacity="0.14" stroke="#A78BFA"/>
  <text x="128" y="138" fill="#D6CCFF" font-family="Arial, sans-serif" font-size="22">GeoSight demo fallback</text>
  <text x="128" y="184" fill="#FFFFFF" font-family="Arial, sans-serif" font-size="50" font-weight="700">Tokyo Commerce</text>
  <text x="128" y="760" fill="#F1EDFF" font-family="Arial, sans-serif" font-size="30" font-weight="600">Captured workspace preview while live global corridor analysis loads</text>
</svg>
